<svg
    width="32"
    height="32"
    viewBox="0 0 32 32"
    fill="none"
    xmlns="http://www.w3.org/2000/svg"
  >
    <g clip-path="url(#clip0_1249_954)">
      <path
        d="M15.9999 10.6673C17.4666 10.6673 18.6666 9.46732 18.6666 8.00065C18.6666 6.53398 17.4666 5.33398 15.9999 5.33398C14.5333 5.33398 13.3333 6.53398 13.3333 8.00065C13.3333 9.46732 14.5333 10.6673 15.9999 10.6673ZM15.9999 13.334C14.5333 13.334 13.3333 14.534 13.3333 16.0007C13.3333 17.4673 14.5333 18.6673 15.9999 18.6673C17.4666 18.6673 18.6666 17.4673 18.6666 16.0007C18.6666 14.534 17.4666 13.334 15.9999 13.334ZM15.9999 21.334C14.5333 21.334 13.3333 22.534 13.3333 24.0007C13.3333 25.4673 14.5333 26.6673 15.9999 26.6673C17.4666 26.6673 18.6666 25.4673 18.6666 24.0007C18.6666 22.534 17.4666 21.334 15.9999 21.334Z"
        fill="gray"
      />
    </g>
    <defs>
      <clipPath id="clip0_1249_954">
        <rect width="32" height="32" fill="gray" />
      </clipPath>
    </defs>
  </svg>